# This file uses centimeters as units for non-parametric coordinates.

mtllib Bush_2.mtl
g default
v -5.127914 18.739222 -20.094574
v -5.127914 18.739222 -12.348297
v 1.580566 18.739222 -16.221436
v -5.127914 23.903411 -20.094574
v -5.127914 23.903411 -12.348297
v 1.580566 23.903411 -16.221436
v -2.891754 16.157126 -16.221436
v -2.891754 26.485507 -16.221436
v -26.416031 22.326045 3.023285
v -26.416031 22.326045 10.769562
v -19.707550 22.326045 6.896423
v -26.416031 27.490233 3.023285
v -26.416031 27.490233 10.769562
v -19.707550 27.490233 6.896423
v -24.179871 19.743949 6.896423
v -24.179871 30.072329 6.896423
v -19.504730 54.359256 19.504730
v 0.000000 10.611953 47.038261
v 19.504730 54.359256 19.504730
v -47.038261 18.377885 0.000000
v 0.000000 0.000000 0.000000
v 47.038269 18.377885 0.000000
v -19.504730 54.359256 -19.504730
v 0.000000 15.733861 -47.038269
v 19.504730 54.359256 -19.504730
v -21.997101 46.529750 0.834351
v -25.518387 11.617821 27.530548
v 0.834351 46.529750 21.997101
v -27.530548 17.815314 -25.518372
v 0.000000 3.149100 0.000000
v 27.530548 17.815314 25.518372
v -0.834351 46.529750 -21.997101
v 25.518387 15.705289 -27.530548
v 21.997101 46.529750 -0.834351
v 16.175812 12.461682 -22.232941
v 16.175812 12.461682 -14.486664
v 22.884293 12.461682 -18.359802
v 16.175812 17.625870 -22.232941
v 16.175812 17.625870 -14.486664
v 22.884293 17.625870 -18.359802
v 18.411972 9.879586 -18.359802
v 18.411972 20.207967 -18.359802
v -7.304031 11.115456 23.467468
v -7.304031 11.115456 31.213745
v -0.595551 11.115456 27.340607
v -7.304031 16.279647 23.467468
v -7.304031 16.279647 31.213745
v -0.595551 16.279647 27.340607
v -5.067871 8.533362 27.340607
v -5.067871 18.861741 27.340607
v 17.818939 16.158250 4.500000
v 17.818939 16.158250 12.246277
v 24.527420 16.158250 8.373138
v 17.818939 21.322438 4.500000
v 17.818939 21.322438 12.246277
v 24.527420 21.322438 8.373138
v 20.055099 13.576154 8.373138
v 20.055099 23.904534 8.373138
vt 0.000000 0.333333
vt 0.333333 0.333333
vt 0.666667 0.333333
vt 1.000000 0.333333
vt 0.000000 0.666667
vt 0.333333 0.666667
vt 0.666667 0.666667
vt 1.000000 0.666667
vt 0.166667 0.000000
vt 0.500000 0.000000
vt 0.833333 0.000000
vt 0.166667 1.000000
vt 0.500000 1.000000
vt 0.833333 1.000000
vt 0.000000 0.333333
vt 0.333333 0.333333
vt 0.333333 0.666667
vt 0.000000 0.666667
vt 0.666667 0.333333
vt 0.666667 0.666667
vt 1.000000 0.333333
vt 1.000000 0.666667
vt 0.166667 0.000000
vt 0.500000 0.000000
vt 0.833333 0.000000
vt 0.166667 1.000000
vt 0.500000 1.000000
vt 0.833333 1.000000
vt 0.000000 0.000000
vt 0.500000 0.000000
vt 0.500000 0.500000
vt 0.000000 0.500000
vt 1.000000 0.000000
vt 1.000000 0.500000
vt 0.500000 1.000000
vt 0.000000 1.000000
vt 1.000000 1.000000
vt 0.000000 0.000000
vt 0.500000 0.000000
vt 0.500000 0.500000
vt 0.000000 0.500000
vt 1.000000 0.000000
vt 1.000000 0.500000
vt 0.500000 1.000000
vt 0.000000 1.000000
vt 1.000000 1.000000
vt 0.000000 0.333333
vt 0.333333 0.333333
vt 0.333333 0.666667
vt 0.000000 0.666667
vt 0.666667 0.333333
vt 0.666667 0.666667
vt 1.000000 0.333333
vt 1.000000 0.666667
vt 0.166667 0.000000
vt 0.500000 0.000000
vt 0.833333 0.000000
vt 0.166667 1.000000
vt 0.500000 1.000000
vt 0.833333 1.000000
vt 0.000000 0.333333
vt 0.333333 0.333333
vt 0.333333 0.666667
vt 0.000000 0.666667
vt 0.666667 0.333333
vt 0.666667 0.666667
vt 1.000000 0.333333
vt 1.000000 0.666667
vt 0.166667 0.000000
vt 0.500000 0.000000
vt 0.833333 0.000000
vt 0.166667 1.000000
vt 0.500000 1.000000
vt 0.833333 1.000000
vt 0.000000 0.333333
vt 0.333333 0.333333
vt 0.333333 0.666667
vt 0.000000 0.666667
vt 0.666667 0.333333
vt 0.666667 0.666667
vt 1.000000 0.333333
vt 1.000000 0.666667
vt 0.166667 0.000000
vt 0.500000 0.000000
vt 0.833333 0.000000
vt 0.166667 1.000000
vt 0.500000 1.000000
vt 0.833333 1.000000
vn -1.000000 0.000000 0.000000
vn -1.000000 0.000000 0.000000
vn -1.000000 0.000000 0.000000
vn -1.000000 0.000000 0.000000
vn 0.500000 0.000000 0.866025
vn 0.500000 0.000000 0.866025
vn 0.500000 0.000000 0.866025
vn 0.500000 0.000000 0.866025
vn 0.499999 0.000000 -0.866026
vn 0.499999 0.000000 -0.866026
vn 0.499999 0.000000 -0.866026
vn 0.499999 0.000000 -0.866026
vn -0.755927 -0.654656 0.000000
vn -0.755927 -0.654656 0.000000
vn -0.755927 -0.654656 0.000000
vn 0.377967 -0.654650 0.654656
vn 0.377967 -0.654650 0.654656
vn 0.377967 -0.654650 0.654656
vn 0.377965 -0.654651 -0.654657
vn 0.377965 -0.654651 -0.654657
vn 0.377965 -0.654651 -0.654657
vn -0.755927 0.654656 0.000000
vn -0.755927 0.654656 0.000000
vn -0.755927 0.654656 0.000000
vn 0.377967 0.654650 0.654656
vn 0.377967 0.654650 0.654656
vn 0.377967 0.654650 0.654656
vn 0.377965 0.654650 -0.654657
vn 0.377965 0.654650 -0.654657
vn 0.377965 0.654650 -0.654657
vn -1.000000 0.000000 0.000000
vn -1.000000 0.000000 0.000000
vn -1.000000 0.000000 0.000000
vn -1.000000 0.000000 0.000000
vn 0.499999 0.000000 0.866026
vn 0.499999 0.000000 0.866026
vn 0.499999 0.000000 0.866026
vn 0.499999 0.000000 0.866026
vn 0.500000 0.000000 -0.866025
vn 0.500000 0.000000 -0.866025
vn 0.500000 0.000000 -0.866025
vn 0.500000 0.000000 -0.866025
vn -0.755927 -0.654656 0.000000
vn -0.755927 -0.654656 0.000000
vn -0.755927 -0.654656 0.000000
vn 0.377967 -0.654650 0.654656
vn 0.377967 -0.654650 0.654656
vn 0.377967 -0.654650 0.654656
vn 0.377965 -0.654650 -0.654657
vn 0.377965 -0.654650 -0.654657
vn 0.377965 -0.654650 -0.654657
vn -0.755927 0.654656 0.000000
vn -0.755927 0.654656 0.000000
vn -0.755927 0.654656 0.000000
vn 0.377967 0.654650 0.654656
vn 0.377967 0.654650 0.654656
vn 0.377967 0.654650 0.654656
vn 0.377965 0.654651 -0.654656
vn 0.377965 0.654651 -0.654656
vn 0.377965 0.654651 -0.654656
vn 0.666993 0.451881 -0.592389
vn 0.000000 0.606499 -0.795084
vn -0.000000 0.999939 0.011084
vn 0.822898 0.567979 0.015462
vn -0.666993 0.451881 -0.592389
vn -0.822898 0.567979 0.015462
vn 0.000000 0.590871 0.806766
vn 0.643183 0.452438 0.617751
vn -0.643183 0.452437 0.617751
vn 0.891877 0.451881 0.018962
vn 0.540496 0.606499 -0.583115
vn -0.007535 0.999939 0.008129
vn 0.593002 0.567980 0.570743
vn -0.086469 0.451881 -0.887878
vn -0.614024 0.567980 -0.548064
vn -0.548437 0.590871 0.591682
vn 0.051765 0.452438 0.890293
vn -0.891656 0.452438 0.015825
vn -1.000000 0.000000 0.000000
vn -1.000000 0.000000 0.000000
vn -1.000000 0.000000 0.000000
vn -1.000000 0.000000 0.000000
vn 0.499999 0.000000 0.866026
vn 0.499999 0.000000 0.866026
vn 0.499999 0.000000 0.866026
vn 0.499999 0.000000 0.866026
vn 0.500000 0.000000 -0.866025
vn 0.500000 0.000000 -0.866025
vn 0.500000 0.000000 -0.866025
vn 0.500000 0.000000 -0.866025
vn -0.755932 -0.654650 0.000000
vn -0.755932 -0.654650 0.000000
vn -0.755932 -0.654650 0.000000
vn 0.377961 -0.654658 0.654651
vn 0.377961 -0.654658 0.654651
vn 0.377961 -0.654658 0.654651
vn 0.377963 -0.654658 -0.654650
vn 0.377963 -0.654658 -0.654650
vn 0.377963 -0.654658 -0.654650
vn -0.755932 0.654650 0.000000
vn -0.755932 0.654650 0.000000
vn -0.755932 0.654650 0.000000
vn 0.377961 0.654658 0.654651
vn 0.377961 0.654658 0.654651
vn 0.377961 0.654658 0.654651
vn 0.377963 0.654658 -0.654650
vn 0.377963 0.654658 -0.654650
vn 0.377963 0.654658 -0.654650
vn -1.000000 0.000000 0.000000
vn -1.000000 0.000000 0.000000
vn -1.000000 0.000000 0.000000
vn -1.000000 0.000000 0.000000
vn 0.500000 0.000000 0.866025
vn 0.500000 0.000000 0.866025
vn 0.500000 0.000000 0.866025
vn 0.500000 0.000000 0.866025
vn 0.499999 0.000000 -0.866026
vn 0.499999 0.000000 -0.866026
vn 0.499999 0.000000 -0.866026
vn 0.499999 0.000000 -0.866026
vn -0.755927 -0.654656 0.000000
vn -0.755927 -0.654656 0.000000
vn -0.755927 -0.654656 0.000000
vn 0.377967 -0.654650 0.654656
vn 0.377967 -0.654650 0.654656
vn 0.377967 -0.654650 0.654656
vn 0.377965 -0.654651 -0.654656
vn 0.377965 -0.654651 -0.654657
vn 0.377965 -0.654651 -0.654656
vn -0.755927 0.654656 0.000000
vn -0.755927 0.654656 0.000000
vn -0.755927 0.654656 0.000000
vn 0.377967 0.654650 0.654656
vn 0.377967 0.654650 0.654656
vn 0.377967 0.654650 0.654656
vn 0.377965 0.654651 -0.654656
vn 0.377965 0.654651 -0.654656
vn 0.377965 0.654651 -0.654656
vn -1.000000 0.000000 0.000000
vn -1.000000 0.000000 0.000000
vn -1.000000 0.000000 0.000000
vn -1.000000 0.000000 0.000000
vn 0.499999 0.000000 0.866026
vn 0.499999 0.000000 0.866026
vn 0.499999 0.000000 0.866026
vn 0.499999 0.000000 0.866026
vn 0.500000 0.000000 -0.866025
vn 0.500000 0.000000 -0.866025
vn 0.500000 0.000000 -0.866025
vn 0.500000 0.000000 -0.866025
vn -0.755932 -0.654650 0.000000
vn -0.755932 -0.654650 0.000000
vn -0.755932 -0.654650 0.000000
vn 0.377965 -0.654655 0.654652
vn 0.377965 -0.654655 0.654652
vn 0.377965 -0.654655 0.654652
vn 0.377963 -0.654656 -0.654653
vn 0.377963 -0.654656 -0.654653
vn 0.377963 -0.654656 -0.654653
vn -0.755932 0.654650 0.000000
vn -0.755932 0.654650 0.000000
vn -0.755932 0.654650 0.000000
vn 0.377965 0.654655 0.654652
vn 0.377965 0.654655 0.654652
vn 0.377965 0.654655 0.654652
vn 0.377963 0.654656 -0.654653
vn 0.377963 0.654656 -0.654653
vn 0.377963 0.654656 -0.654653
s off
g bush2
usemtl lambert8SG
f 1/1/1 2/2/2 5/6/3 4/5/4
f 2/2/5 3/3/6 6/7/7 5/6/8
f 3/3/9 1/4/10 4/8/11 6/7/12
f 2/2/13 1/1/14 7/9/15
f 3/3/16 2/2/17 7/10/18
f 1/4/19 3/3/20 7/11/21
f 4/5/22 5/6/23 8/12/24
f 5/6/25 6/7/26 8/13/27
f 6/7/28 4/8/29 8/14/30
f 9/15/31 10/16/32 13/17/33 12/18/34
f 10/16/35 11/19/36 14/20/37 13/17/38
f 11/19/39 9/21/40 12/22/41 14/20/42
f 10/16/43 9/15/44 15/23/45
f 11/19/46 10/16/47 15/24/48
f 9/21/49 11/19/50 15/25/51
f 12/18/52 13/17/53 16/26/54
f 13/17/55 14/20/56 16/27/57
f 14/20/58 12/22/59 16/28/60
s 1
usemtl lambert2SG
f 17/29/61 18/30/62 21/31/63 20/32/64
f 18/30/62 19/33/65 22/34/66 21/31/63
f 20/32/64 21/31/63 24/35/67 23/36/68
f 21/31/63 22/34/66 25/37/69 24/35/67
s 2
f 26/38/70 27/39/71 30/40/72 29/41/73
f 27/39/71 28/42/74 31/43/75 30/40/72
f 29/41/73 30/40/72 33/44/76 32/45/77
f 30/40/72 31/43/75 34/46/78 33/44/76
s off
usemtl lambert8SG
f 35/47/79 36/48/80 39/49/81 38/50/82
f 36/48/83 37/51/84 40/52/85 39/49/86
f 37/51/87 35/53/88 38/54/89 40/52/90
f 36/48/91 35/47/92 41/55/93
f 37/51/94 36/48/95 41/56/96
f 35/53/97 37/51/98 41/57/99
f 38/50/100 39/49/101 42/58/102
f 39/49/103 40/52/104 42/59/105
f 40/52/106 38/54/107 42/60/108
f 43/61/109 44/62/110 47/63/111 46/64/112
f 44/62/113 45/65/114 48/66/115 47/63/116
f 45/65/117 43/67/118 46/68/119 48/66/120
f 44/62/121 43/61/122 49/69/123
f 45/65/124 44/62/125 49/70/126
f 43/67/127 45/65/128 49/71/129
f 46/64/130 47/63/131 50/72/132
f 47/63/133 48/66/134 50/73/135
f 48/66/136 46/68/137 50/74/138
f 51/75/139 52/76/140 55/77/141 54/78/142
f 52/76/143 53/79/144 56/80/145 55/77/146
f 53/79/147 51/81/148 54/82/149 56/80/150
f 52/76/151 51/75/152 57/83/153
f 53/79/154 52/76/155 57/84/156
f 51/81/157 53/79/158 57/85/159
f 54/78/160 55/77/161 58/86/162
f 55/77/163 56/80/164 58/87/165
f 56/80/166 54/82/167 58/88/168
