# This file uses centimeters as units for non-parametric coordinates.

mtllib Bush_1.mtl
g default
v -19.504730 54.359256 19.504730
v 0.000000 10.611953 47.038269
v 19.504730 54.359256 19.504730
v -47.038261 18.377885 0.000000
v 0.000000 0.000000 0.000000
v 47.038269 18.377885 0.000000
v -19.504730 54.359256 -19.504730
v 0.000000 15.733861 -47.038269
v 19.504730 54.359256 -19.504730
v -21.997101 46.529750 0.834351
v -25.518387 11.617821 27.530548
v 0.834351 46.529750 21.997101
v -27.530548 17.815314 -25.518372
v 0.000000 3.149100 0.000000
v 27.530548 17.815314 25.518387
v -0.834351 46.529750 -21.997101
v 25.518387 15.705289 -27.530548
v 21.997101 46.529750 -0.834351
vt 0.000000 0.000000
vt 0.500000 0.000000
vt 1.000000 0.000000
vt 0.000000 0.500000
vt 0.500000 0.500000
vt 1.000000 0.500000
vt 0.000000 1.000000
vt 0.500000 1.000000
vt 1.000000 1.000000
vt 0.000000 0.000000
vt 0.500000 0.000000
vt 0.500000 0.500000
vt 0.000000 0.500000
vt 1.000000 0.000000
vt 1.000000 0.500000
vt 0.500000 1.000000
vt 0.000000 1.000000
vt 1.000000 1.000000
vn 0.666993 0.451881 -0.592389
vn -0.000000 0.606499 -0.795084
vn -0.000000 0.999939 0.011084
vn 0.822897 0.567980 0.015462
vn -0.666993 0.451881 -0.592389
vn -0.822897 0.567979 0.015462
vn -0.000000 0.590871 0.806766
vn 0.643183 0.452438 0.617751
vn -0.643183 0.452438 0.617751
vn 0.891877 0.451881 0.018962
vn 0.540496 0.606499 -0.583115
vn -0.007535 0.999939 0.008129
vn 0.593002 0.567979 0.570743
vn -0.086469 0.451881 -0.887878
vn -0.614024 0.567980 -0.548064
vn -0.548437 0.590871 0.591682
vn 0.051764 0.452438 0.890293
vn -0.891655 0.452438 0.015825
s 1
g bush1
usemtl lambert2SG
f 1/1/1 2/2/2 5/5/3 4/4/4
f 2/2/2 3/3/5 6/6/6 5/5/3
f 4/4/4 5/5/3 8/8/7 7/7/8
f 5/5/3 6/6/6 9/9/9 8/8/7
s 2
f 10/10/10 11/11/11 14/12/12 13/13/13
f 11/11/11 12/14/14 15/15/15 14/12/12
f 13/13/13 14/12/12 17/16/16 16/17/17
f 14/12/12 15/15/15 18/18/18 17/16/16
