# This file uses centimeters as units for non-parametric coordinates.

mtllib Flower_3.mtl
g default
v -14.872034 3.232808 14.872034
v -0.000000 3.355169 14.872034
v 14.872034 3.232808 14.872034
v -14.872034 5.810514 0.000000
v -0.000000 -0.000000 0.000000
v 14.872034 5.810514 0.000000
v -14.872034 3.232804 -14.872034
v -0.000000 4.974557 -14.872034
v 14.872034 3.232804 -14.872034
vt 0.000000 0.000000
vt 0.500000 0.000000
vt 1.000000 0.000000
vt 0.000000 0.500000
vt 0.500000 0.500000
vt 1.000000 0.500000
vt 0.000000 1.000000
vt 0.500000 1.000000
vt 1.000000 1.000000
vn 0.187771 0.981877 -0.025665
vn 0.000000 0.999658 -0.026129
vn 0.000000 0.999647 0.026569
vn 0.161794 0.986459 0.026853
vn -0.187771 0.981877 -0.025665
vn -0.161794 0.986459 0.026853
vn 0.000000 0.996769 0.080322
vn 0.135100 0.987630 0.079586
vn -0.135100 0.987630 0.079586
s 1
g flower3
usemtl lambert7SG
f 1/1/1 2/2/2 5/5/3 4/4/4
f 2/2/2 3/3/5 6/6/6 5/5/3
f 4/4/4 5/5/3 8/8/7 7/7/8
f 5/5/3 6/6/6 9/9/9 8/8/7
