# This file uses centimeters as units for non-parametric coordinates.

mtllib Rock2.mtl
g default
v -4.383205 -0.000000 -10.753936
v -9.420418 -0.000000 -5.807477
v -2.690234 16.133848 -4.938523
v -9.074506 8.348471 1.330725
v -3.465790 19.776041 -3.216864
v -4.519936 19.776041 -2.181710
v 1.755732 19.776041 -2.175125
v -3.377086 19.776041 2.865217
v 3.481193 19.776041 3.052428
v 0.910578 19.776041 5.576728
v 4.581834 16.133848 5.173736
v -0.936503 16.133848 10.592650
v 9.192485 -0.000000 8.124036
v 5.624646 -0.000000 11.627594
v 4.741177 -0.000000 -4.655756
v -7.958016 -0.000000 7.814638
v -7.838499 6.185319 8.183144
v 2.984606 16.133848 -2.444963
vt 0.355737 0.240387
vt 0.355737 0.001992
vt 0.670041 0.105933
vt 0.476233 0.233634
vt 0.740995 0.150441
vt 0.740995 0.246657
vt 0.355737 0.449693
vt 0.518371 0.345752
vt 0.740995 0.332404
vt 0.558002 0.901166
vt 0.558002 0.662771
vt 0.872306 0.669524
vt 0.872306 0.797224
vt 0.558002 0.453466
vt 0.872306 0.557407
vt 0.943259 0.656501
vt 0.943259 0.752714
vt 0.943259 0.570752
vt 0.060242 0.771537
vt 0.089023 0.771537
vt 0.142026 0.857284
vt 0.001883 0.857284
vt 0.119439 0.953500
vt 0.049252 0.953500
vt 0.213576 0.998008
vt 0.062909 0.998008
vt 0.114446 0.001992
vt 0.211860 0.001992
vt 0.348612 0.240387
vt 0.001883 0.240387
vt 0.183004 0.449691
vt 0.045473 0.449691
vt 0.322046 0.453466
vt 0.459577 0.453466
vt 0.552202 0.616103
vt 0.377891 0.767769
vt 0.440952 0.838723
vt 0.412171 0.838723
vt 0.165579 0.453460
vt 0.316246 0.453460
vt 0.239175 0.767764
vt 0.141761 0.767764
vn -0.766842 0.348901 -0.538722
vn -0.766842 0.348901 -0.538722
vn -0.767474 0.336304 -0.545788
vn -0.768309 0.277311 -0.576887
vn -0.753424 0.111939 -0.647937
vn -0.753424 0.111939 -0.647937
vn -0.000000 1.000000 0.000000
vn -0.000000 1.000000 0.000000
vn -0.000000 1.000000 -0.000000
vn -0.000000 1.000000 -0.000000
vn -0.000000 1.000000 -0.000000
vn -0.000000 1.000000 -0.000000
vn 0.593537 0.531396 0.604427
vn 0.593537 0.531396 0.604427
vn 0.659269 0.338575 0.671365
vn 0.654395 0.357317 0.666402
vn 0.665218 0.313979 0.677423
vn 0.665218 0.313979 0.677423
vn 0.000000 -1.000000 0.000000
vn 0.000000 -1.000000 0.000000
vn 0.000000 -1.000000 0.000000
vn 0.000000 -1.000000 0.000000
vn 0.000000 -1.000000 0.000000
vn 0.000000 -1.000000 0.000000
vn -0.646402 -0.051057 0.761287
vn -0.268539 -0.048779 0.962033
vn -0.538691 0.275652 0.796133
vn -0.649129 0.064813 0.757912
vn -0.991315 -0.033885 0.127069
vn -0.961143 0.195450 0.194943
vn -0.696219 0.539093 0.473981
vn -0.810374 0.469023 0.351157
vn -0.879603 0.405042 0.249477
vn 0.943134 0.179695 -0.279657
vn 0.788241 0.208276 -0.579048
vn 0.793634 0.218858 -0.567667
vn 0.943067 0.184129 -0.276986
vn 0.490748 0.211228 -0.845310
vn 0.468175 0.225723 -0.854319
vn 0.680566 0.320595 -0.658824
vn 0.940120 0.238842 -0.243163
vn 0.291740 0.326109 -0.899189
s 1
g rock3
usemtl lambert10SG
f 1/33/1 2/34/2 4/35/3 3/36/4
f 3/36/4 4/35/3 6/37/5 5/38/6
s 2
f 5/19/7 6/20/8 8/21/9 7/22/10
f 7/22/10 8/21/9 10/23/11 9/24/12
s 3
f 9/24/13 10/23/14 12/25/15 11/26/16
f 11/39/16 12/40/15 14/41/17 13/42/18
s 4
f 13/27/19 14/28/20 16/29/21 15/30/22
f 15/30/22 16/29/21 2/31/23 1/32/24
s 5
f 16/1/25 14/2/26 12/3/27 17/4/28
f 2/7/29 16/1/25 17/4/28 4/8/30
f 17/4/28 12/3/27 10/5/31 8/6/32
f 4/8/30 17/4/28 8/6/32 6/9/33
s 6
f 13/10/34 15/11/35 18/12/36 11/13/37
f 15/11/35 1/14/38 3/15/39 18/12/36
f 11/13/37 18/12/36 7/16/40 9/17/41
f 18/12/36 3/15/39 5/18/42 7/16/40
